<svg
  id="svg"
  version="1.1"
  xmlns="http://www.w3.org/2000/svg"
  xmlns:xlink="http://www.w3.org/1999/xlink"
  width="400"
  height="320.5405405405405"
  viewBox="0, 0, 400,320.5405405405405"
>
  <g id="svgg">
    <path
      id="path0"
      d="M196.959 3.985 C 198.483 4.034,200.976 4.034,202.500 3.985 C 204.024 3.937,202.777 3.898,199.730 3.898 C 196.682 3.898,195.436 3.937,196.959 3.985 M188.904 6.689 L 187.973 7.703 188.986 6.771 C 189.930 5.904,190.124 5.676,189.918 5.676 C 189.873 5.676,189.417 6.132,188.904 6.689 M182.973 25.811 C 182.316 26.480,181.840 27.027,181.914 27.027 C 181.989 27.027,182.587 26.480,183.243 25.811 C 183.900 25.142,184.376 24.595,184.302 24.595 C 184.227 24.595,183.629 25.142,182.973 25.811 M216.745 25.743 C 217.408 26.449,217.986 27.027,218.029 27.027 C 218.232 27.027,218.018 26.784,216.824 25.664 L 215.541 24.459 216.745 25.743 M91.981 29.122 C 107.713 29.160,133.375 29.160,149.008 29.122 C 164.641 29.083,151.770 29.052,120.405 29.052 C 89.041 29.052,76.250 29.083,91.981 29.122 M251.170 29.122 C 266.902 29.160,292.564 29.160,308.197 29.122 C 323.831 29.083,310.959 29.052,279.595 29.052 C 248.230 29.052,235.439 29.083,251.170 29.122 M58.986 29.375 C 59.247 29.443,59.672 29.443,59.932 29.375 C 60.193 29.308,59.980 29.252,59.459 29.252 C 58.939 29.252,58.726 29.308,58.986 29.375 M356.486 32.838 C 356.858 33.050,357.284 33.224,357.432 33.224 C 357.581 33.224,357.399 33.050,357.027 32.838 C 356.655 32.625,356.230 32.452,356.081 32.452 C 355.932 32.452,356.115 32.625,356.486 32.838 M373.243 42.787 C 373.243 42.834,373.639 43.229,374.122 43.666 L 375.000 44.459 374.206 43.581 C 373.466 42.762,373.243 42.578,373.243 42.787 M22.973 46.081 C 21.866 47.196,21.020 48.108,21.095 48.108 C 21.169 48.108,22.136 47.196,23.243 46.081 C 24.351 44.966,25.196 44.054,25.122 44.054 C 25.047 44.054,24.080 44.966,22.973 46.081 M376.892 46.216 C 377.472 46.811,378.008 47.297,378.083 47.297 C 378.157 47.297,377.743 46.811,377.162 46.216 C 376.582 45.622,376.046 45.135,375.971 45.135 C 375.897 45.135,376.311 45.622,376.892 46.216 M3.582 89.865 C 3.585 90.459,3.640 90.671,3.705 90.335 C 3.769 89.998,3.767 89.512,3.699 89.254 C 3.632 88.995,3.579 89.270,3.582 89.865 M396.290 91.081 C 396.290 91.750,396.343 92.024,396.407 91.689 C 396.471 91.355,396.471 90.807,396.407 90.473 C 396.343 90.139,396.290 90.412,396.290 91.081 M369.252 94.865 C 369.252 95.385,369.308 95.598,369.375 95.338 C 369.443 95.078,369.443 94.652,369.375 94.392 C 369.308 94.132,369.252 94.345,369.252 94.865 M393.632 109.527 L 392.838 110.405 393.716 109.612 C 394.199 109.175,394.595 108.780,394.595 108.733 C 394.595 108.524,394.372 108.708,393.632 109.527 M379.782 112.093 C 381.372 112.141,384.048 112.141,385.728 112.094 C 387.409 112.046,386.108 112.007,382.838 112.007 C 379.568 112.007,378.193 112.046,379.782 112.093 M71.009 114.333 C 61.661 115.914,60.898 129.339,70.000 132.081 C 71.442 132.515,342.991 132.634,344.475 132.201 C 352.677 129.806,353.500 118.553,345.739 114.916 L 344.189 114.189 208.243 114.152 C 133.473 114.132,71.717 114.214,71.009 114.333 M70.921 151.900 C 62.235 153.622,60.899 165.117,68.919 169.122 L 70.405 169.865 207.303 169.865 L 344.201 169.865 346.008 168.975 C 353.919 165.080,352.250 153.549,343.535 151.896 C 341.774 151.562,72.606 151.566,70.921 151.900 M371.744 176.284 L 370.676 177.432 371.824 176.364 C 372.893 175.371,373.097 175.135,372.893 175.135 C 372.849 175.135,372.332 175.652,371.744 176.284 M369.257 190.946 C 369.260 191.541,369.316 191.752,369.380 191.416 C 369.445 191.080,369.443 190.593,369.375 190.335 C 369.307 190.076,369.254 190.351,369.257 190.946 M396.279 195.135 C 396.279 195.655,396.335 195.868,396.403 195.608 C 396.471 195.348,396.471 194.922,396.403 194.662 C 396.335 194.402,396.279 194.615,396.279 195.135 M3.576 195.405 C 3.576 195.926,3.632 196.139,3.700 195.878 C 3.768 195.618,3.768 195.193,3.700 194.932 C 3.632 194.672,3.576 194.885,3.576 195.405 M43.029 198.849 C 44.026 198.901,45.728 198.901,46.812 198.850 C 47.897 198.798,47.081 198.756,45.000 198.755 C 42.919 198.755,42.032 198.797,43.029 198.849 M52.922 198.851 C 55.198 198.896,58.847 198.896,61.030 198.851 C 63.214 198.805,61.351 198.768,56.892 198.768 C 52.432 198.769,50.646 198.806,52.922 198.851 M69.138 198.851 C 71.414 198.896,75.063 198.896,77.246 198.851 C 79.430 198.805,77.568 198.768,73.108 198.768 C 68.649 198.769,66.862 198.806,69.138 198.851 M85.203 198.851 C 87.395 198.896,90.983 198.896,93.176 198.851 C 95.368 198.805,93.574 198.768,89.189 198.768 C 84.804 198.768,83.010 198.805,85.203 198.851 M101.419 198.851 C 103.611 198.896,107.199 198.896,109.392 198.851 C 111.584 198.805,109.791 198.768,105.405 198.768 C 101.020 198.768,99.226 198.805,101.419 198.851 M117.635 198.851 C 119.828 198.896,123.416 198.896,125.608 198.851 C 127.801 198.805,126.007 198.768,121.622 198.768 C 117.236 198.768,115.443 198.805,117.635 198.851 M133.733 198.851 C 136.009 198.896,139.658 198.896,141.841 198.851 C 144.024 198.805,142.162 198.768,137.703 198.768 C 133.243 198.769,131.457 198.806,133.733 198.851 M148.581 198.850 C 150.105 198.898,152.598 198.898,154.122 198.850 C 155.645 198.802,154.399 198.763,151.351 198.763 C 148.304 198.763,147.057 198.802,148.581 198.850 M247.095 198.851 C 249.287 198.896,252.875 198.896,255.068 198.851 C 257.260 198.805,255.466 198.768,251.081 198.768 C 246.696 198.768,244.902 198.805,247.095 198.851 M263.192 198.851 C 265.468 198.896,269.117 198.896,271.300 198.851 C 273.484 198.805,271.622 198.768,267.162 198.768 C 262.703 198.769,260.916 198.806,263.192 198.851 M279.257 198.851 C 281.449 198.896,285.037 198.896,287.230 198.851 C 289.422 198.805,287.628 198.768,283.243 198.768 C 278.858 198.768,277.064 198.805,279.257 198.851 M295.473 198.851 C 297.666 198.896,301.253 198.896,303.446 198.851 C 305.639 198.805,303.845 198.768,299.459 198.768 C 295.074 198.768,293.280 198.805,295.473 198.851 M311.689 198.851 C 313.882 198.896,317.470 198.896,319.662 198.851 C 321.855 198.805,320.061 198.768,315.676 198.768 C 311.291 198.768,309.497 198.805,311.689 198.851 M327.787 198.851 C 330.063 198.896,333.712 198.896,335.895 198.851 C 338.078 198.805,336.216 198.768,331.757 198.768 C 327.297 198.769,325.511 198.806,327.787 198.851 M344.003 198.851 C 346.279 198.896,349.928 198.896,352.111 198.851 C 354.295 198.805,352.432 198.768,347.973 198.768 C 343.514 198.769,341.727 198.806,344.003 198.851 M356.828 198.843 C 357.239 198.905,357.847 198.903,358.179 198.839 C 358.512 198.775,358.176 198.724,357.432 198.726 C 356.689 198.728,356.417 198.780,356.828 198.843 M158.584 199.110 C 158.920 199.175,159.407 199.172,159.665 199.105 C 159.924 199.037,159.649 198.984,159.054 198.987 C 158.459 198.990,158.248 199.045,158.584 199.110 M240.476 199.110 C 240.812 199.175,241.299 199.172,241.557 199.105 C 241.816 199.037,241.541 198.984,240.946 198.987 C 240.351 198.990,240.140 199.045,240.476 199.110 M179.189 204.986 C 179.189 205.060,179.554 205.310,180.000 205.541 C 180.446 205.771,180.811 205.899,180.811 205.825 C 180.811 205.750,180.446 205.501,180.000 205.270 C 179.554 205.040,179.189 204.912,179.189 204.986 M210.118 212.230 L 209.324 213.108 210.203 212.314 C 211.021 211.574,211.205 211.351,210.997 211.351 C 210.950 211.351,210.555 211.747,210.118 212.230 M192.162 214.730 C 193.568 216.142,194.780 217.297,194.854 217.297 C 194.929 217.297,193.839 216.142,192.432 214.730 C 191.026 213.318,189.815 212.162,189.740 212.162 C 189.666 212.162,190.756 213.318,192.162 214.730 M22.703 239.054 C 23.960 240.318,25.049 241.351,25.123 241.351 C 25.198 241.351,24.230 240.318,22.973 239.054 C 21.716 237.791,20.627 236.757,20.552 236.757 C 20.478 236.757,21.446 237.791,22.703 239.054 M377.289 238.851 L 375.541 240.676 377.365 238.927 C 379.059 237.302,379.313 237.027,379.114 237.027 C 379.072 237.027,378.251 237.848,377.289 238.851 M62.774 256.410 C 63.185 256.472,63.793 256.471,64.125 256.406 C 64.458 256.342,64.122 256.291,63.378 256.294 C 62.635 256.296,62.363 256.348,62.774 256.410 M66.081 256.393 C 68.672 256.591,71.562 256.605,71.446 256.419 C 71.376 256.307,69.898 256.237,68.160 256.263 C 66.422 256.289,65.486 256.348,66.081 256.393 M141.554 256.415 C 142.334 256.470,143.611 256.470,144.392 256.415 C 145.172 256.361,144.534 256.316,142.973 256.316 C 141.412 256.316,140.774 256.361,141.554 256.415 M149.797 256.418 C 151.990 256.464,155.578 256.464,157.770 256.418 C 159.963 256.373,158.169 256.336,153.784 256.336 C 149.399 256.336,147.605 256.373,149.797 256.418 M165.473 256.418 C 167.368 256.465,170.470 256.465,172.365 256.418 C 174.260 256.372,172.709 256.334,168.919 256.334 C 165.128 256.334,163.578 256.372,165.473 256.418 M224.797 256.407 C 225.132 256.471,225.679 256.471,226.014 256.407 C 226.348 256.343,226.074 256.290,225.405 256.290 C 224.736 256.290,224.463 256.343,224.797 256.407 M230.878 256.418 C 233.071 256.464,236.659 256.464,238.851 256.418 C 241.044 256.373,239.250 256.336,234.865 256.336 C 230.480 256.336,228.686 256.373,230.878 256.418 M246.976 256.418 C 249.252 256.464,252.901 256.464,255.084 256.418 C 257.268 256.373,255.405 256.336,250.946 256.336 C 246.486 256.336,244.700 256.373,246.976 256.418 M263.041 256.418 C 265.233 256.464,268.821 256.464,271.014 256.418 C 273.206 256.373,271.412 256.336,267.027 256.336 C 262.642 256.336,260.848 256.373,263.041 256.418 M279.257 256.418 C 281.449 256.464,285.037 256.464,287.230 256.418 C 289.422 256.373,287.628 256.336,283.243 256.336 C 278.858 256.336,277.064 256.373,279.257 256.418 M295.473 256.418 C 297.666 256.464,301.253 256.464,303.446 256.418 C 305.639 256.373,303.845 256.336,299.459 256.336 C 295.074 256.336,293.280 256.373,295.473 256.418 M311.689 256.418 C 313.882 256.464,317.470 256.464,319.662 256.418 C 321.855 256.373,320.061 256.336,315.676 256.336 C 311.291 256.336,309.497 256.373,311.689 256.418 M327.349 256.418 C 329.235 256.464,332.398 256.465,334.376 256.418 C 336.354 256.372,334.811 256.334,330.946 256.334 C 327.081 256.334,325.462 256.372,327.349 256.418 M103.641 284.932 L 101.757 286.892 103.716 285.007 C 105.536 283.257,105.799 282.973,105.601 282.973 C 105.560 282.973,104.678 283.855,103.641 284.932 M108.514 285.676 C 109.994 287.162,111.267 288.378,111.341 288.378 C 111.416 288.378,110.265 287.162,108.784 285.676 C 107.303 284.189,106.030 282.973,105.956 282.973 C 105.882 282.973,107.033 284.189,108.514 285.676 M98.364 289.932 L 97.432 290.946 98.446 290.015 C 99.389 289.148,99.584 288.919,99.377 288.919 C 99.332 288.919,98.876 289.375,98.364 289.932 M94.865 293.378 C 93.757 294.493,92.912 295.405,92.987 295.405 C 93.061 295.405,94.028 294.493,95.135 293.378 C 96.243 292.264,97.088 291.351,97.013 291.351 C 96.939 291.351,95.972 292.264,94.865 293.378 M117.568 294.459 C 119.272 296.169,120.728 297.568,120.802 297.568 C 120.876 297.568,119.542 296.169,117.838 294.459 C 116.133 292.750,114.678 291.351,114.603 291.351 C 114.529 291.351,115.863 292.750,117.568 294.459 M86.753 301.284 L 83.378 304.730 86.824 301.355 C 88.720 299.500,90.270 297.949,90.270 297.909 C 90.270 297.715,89.887 298.083,86.753 301.284 M126.757 303.378 C 128.461 305.088,129.917 306.486,129.991 306.486 C 130.066 306.486,128.732 305.088,127.027 303.378 C 125.322 301.669,123.867 300.270,123.793 300.270 C 123.718 300.270,125.052 301.669,126.757 303.378 M77.158 310.608 L 74.189 313.649 77.230 310.680 C 80.054 307.923,80.393 307.568,80.198 307.568 C 80.158 307.568,78.790 308.936,77.158 310.608 M136.216 312.568 C 137.921 314.277,139.376 315.676,139.451 315.676 C 139.525 315.676,138.191 314.277,136.486 312.568 C 134.782 310.858,133.326 309.459,133.252 309.459 C 133.178 309.459,134.512 310.858,136.216 312.568 "
      stroke="none"
      fill="#96969e"
      fill-rule="evenodd"
    ></path>
    <path
      id="path1"
      d="M192.973 4.298 C 188.249 5.800,186.705 8.511,186.493 15.676 C 186.296 22.345,185.088 25.015,181.128 27.529 C 178.321 29.311,182.861 29.189,119.187 29.189 C 61.394 29.189,58.385 29.233,53.514 30.135 C 27.608 34.933,7.942 56.840,4.139 85.135 C 3.388 90.722,3.381 195.020,4.131 200.270 C 6.441 216.437,12.651 229.018,23.552 239.613 C 35.464 251.193,48.004 256.128,65.946 256.299 L 71.486 256.351 71.555 286.036 C 71.596 303.556,71.724 315.683,71.868 315.630 C 72.002 315.581,76.230 311.527,81.263 306.622 C 100.844 287.536,105.461 283.108,105.782 283.108 C 105.964 283.108,113.626 290.405,122.808 299.324 C 131.989 308.243,139.613 315.581,139.749 315.630 C 139.899 315.684,140.025 303.926,140.066 286.036 L 140.135 256.351 157.297 256.276 C 179.171 256.180,179.705 256.250,183.132 259.677 C 185.821 262.366,186.299 263.792,186.488 269.699 C 186.795 279.273,188.968 281.346,198.919 281.561 C 210.553 281.812,213.218 279.653,213.511 269.740 C 213.715 262.817,215.344 259.624,219.770 257.471 C 222.323 256.229,222.235 256.231,282.317 256.228 C 322.433 256.226,340.438 256.135,342.429 255.925 C 371.042 252.899,393.109 228.738,396.102 197.157 C 397.491 182.497,396.238 176.763,391.121 174.364 C 388.920 173.332,376.943 173.247,374.795 174.248 C 370.479 176.260,369.663 178.122,369.435 186.486 C 369.197 195.220,368.723 196.432,365.000 197.829 C 362.271 198.852,359.511 198.898,300.209 198.905 C 242.891 198.912,240.813 198.943,235.791 199.868 C 222.177 202.375,208.734 211.099,201.057 222.411 C 199.931 224.069,200.185 224.174,197.825 221.081 C 188.233 208.508,174.928 200.906,159.510 199.190 C 157.853 199.006,137.444 198.908,99.780 198.905 C 68.313 198.902,41.230 198.793,39.595 198.663 C 34.383 198.249,31.927 196.881,31.065 193.910 C 30.512 192.004,30.476 93.226,31.028 91.405 C 31.523 89.770,33.077 88.318,35.165 87.538 L 36.892 86.894 97.838 86.748 C 165.263 86.587,160.237 86.723,167.581 84.862 C 179.920 81.734,190.182 74.650,198.525 63.499 L 199.952 61.591 200.719 62.586 C 210.448 75.212,219.793 81.752,232.705 84.970 C 239.630 86.696,235.223 86.583,302.027 86.745 L 362.838 86.892 364.678 87.516 C 368.695 88.878,369.219 90.148,369.436 99.054 L 369.595 105.541 370.563 107.297 C 372.750 111.265,374.691 111.954,383.366 111.841 C 395.836 111.679,397.533 108.851,396.229 90.405 C 393.878 57.159,371.859 32.610,341.565 29.462 C 339.886 29.287,318.067 29.189,281.006 29.189 C 217.948 29.189,221.690 29.276,219.189 27.749 C 214.972 25.174,213.784 22.676,213.507 15.811 C 213.236 9.074,212.317 7.044,208.608 4.990 L 207.162 4.189 200.405 4.136 C 196.689 4.107,193.345 4.180,192.973 4.298 "
      stroke="none"
      fill="#2F2E5F"
      fill-rule="evenodd"
    ></path>
  </g>
</svg>
